<?xml version="1.0" encoding="UTF-8" standalone="no"?>
<!-- Created with Inkscape (http://www.inkscape.org/) -->

<svg
   width="100mm"
   height="100mm"
   viewBox="0 0 100 100"
   version="1.1"
   id="svg1"
   inkscape:version="1.4.2 (ebf0e940, 2025-05-08)"
   sodipodi:docname="icon.svg"
   inkscape:export-filename="icon-big.png"
   inkscape:export-xdpi="260.09601"
   inkscape:export-ydpi="260.09601"
   xmlns:inkscape="http://www.inkscape.org/namespaces/inkscape"
   xmlns:sodipodi="http://sodipodi.sourceforge.net/DTD/sodipodi-0.dtd"
   xmlns="http://www.w3.org/2000/svg"
   xmlns:svg="http://www.w3.org/2000/svg">
  <sodipodi:namedview
     id="namedview1"
     pagecolor="#ffffff"
     bordercolor="#000000"
     borderopacity="0.25"
     inkscape:showpageshadow="2"
     inkscape:pageopacity="0.0"
     inkscape:pagecheckerboard="0"
     inkscape:deskcolor="#d1d1d1"
     inkscape:document-units="mm"
     inkscape:zoom="2.5423901"
     inkscape:cx="117.80254"
     inkscape:cy="191.94537"
     inkscape:window-width="2560"
     inkscape:window-height="1329"
     inkscape:window-x="0"
     inkscape:window-y="25"
     inkscape:window-maximized="1"
     inkscape:current-layer="layer1"
     showgrid="false" />
  <defs
     id="defs1">
    <clipPath
       clipPathUnits="userSpaceOnUse"
       id="clipPath2">
      <rect
         style="vector-effect:none;fill:#a40e0a;fill-opacity:1;stroke:none;stroke-width:0.38213;stroke-linecap:butt;stroke-linejoin:miter;stroke-miterlimit:4;stroke-dasharray:none;stroke-dashoffset:0;stroke-opacity:1;-inkscape-stroke:none;paint-order:markers stroke fill"
         id="rect3"
         width="49.433426"
         height="11.377564"
         x="-0.21246529"
         y="81.258171" />
    </clipPath>
  </defs>
  <g
     inkscape:label="Layer 1"
     inkscape:groupmode="layer"
     id="layer1">
    <rect
       style="fill:#000000;stroke-width:0.264583"
       id="rect1"
       width="100"
       height="100"
       x="0"
       y="0"
       ry="15.159068" />
    <rect
       style="fill:#a40e0a;stroke-width:0.264583;fill-opacity:1"
       id="rect2"
       width="100"
       height="100"
       x="0"
       y="0"
       ry="15.159068"
       clip-path="url(#clipPath2)"
       inkscape:label="rect2" />
    <path
       id="text31"
       style="font-weight:bold;font-size:67.0277px;font-family:'Century Gothic';-inkscape-font-specification:'Century Gothic, Bold';text-align:center;letter-spacing:0px;word-spacing:-0.0396875px;text-anchor:middle;fill:#ffffff;stroke-width:0.435752;paint-order:markers stroke fill"
       d="m 75.405483,61.876813 c -3.368416,0 -5.996609,1.358351 -7.884553,4.074809 -1.697795,2.471982 -2.546795,6.458201 -2.546795,11.959037 0,3.938878 0.434532,6.974537 1.303794,9.106962 0.869269,2.132426 2.071315,3.721569 3.606113,4.767404 1.534805,1.045842 3.429547,1.568868 5.684213,1.568868 2.254661,0 4.122349,-0.516023 5.602821,-1.548282 1.480473,-1.045835 2.655459,-2.675721 3.524727,-4.889644 0.882852,-2.213912 1.324063,-5.3107 1.324063,-9.29032 0,-3.938866 -0.434532,-7.0086 -1.3038,-9.208934 -0.85568,-2.213918 -2.0781,-3.857499 -3.667231,-4.9305 -1.575547,-1.073007 -3.4566,-1.6094 -5.643352,-1.6094 z m -0.565207,1.984489 c 1.228166,-0.03069 2.485671,0.06958 3.642461,0.510197 2.257723,0.806638 3.780177,2.904833 4.514556,5.112245 0.792819,2.395632 0.995462,4.888163 1.025218,7.384006 -0.0025,3.438436 -0.06169,6.992022 -1.531232,10.152125 -0.716394,1.575535 -1.857566,3.048575 -3.490626,3.736073 -1.756428,0.679268 -3.730103,0.798564 -5.568079,0.39921 -1.700502,-0.335665 -3.228005,-1.35919 -4.200591,-2.791599 -1.153497,-1.602596 -1.651405,-3.481787 -1.944921,-5.409808 -0.372886,-2.361121 -0.374417,-4.776243 -0.269251,-7.135988 0.157997,-2.542381 0.365683,-5.132135 1.438908,-7.455737 1.02955,-2.561741 3.618507,-4.410274 6.383557,-4.500724 z m 0.688413,1.457565 c -0.194837,0.01208 -0.391056,0.01208 -0.585152,0.03343 -2.163483,0.157493 -4.024939,1.701978 -4.915697,3.628953 -1.114889,2.64152 -1.282666,5.560615 -1.310554,8.393779 0.04277,2.777973 -3.24e-4,5.652646 1.023288,8.2828 0.760449,2.236128 2.778104,4.066703 5.159213,4.340846 2.134667,0.313374 4.267796,-0.871372 5.430077,-2.630757 1.53209,-2.507365 1.877399,-5.521024 1.951034,-8.402146 0.0086,-3.169453 0.0758,-6.455948 -1.120759,-9.450845 -0.851515,-2.311152 -3.09075,-4.236919 -5.63145,-4.196083 z m 0.0193,1.97741 c 1.412564,0 2.560165,0.746816 3.443017,2.240872 0.896435,1.494049 1.344655,4.210743 1.344655,8.149615 0,3.884546 -0.495649,6.655354 -1.487164,8.312393 -0.814931,1.371815 -1.91511,2.057514 -3.300508,2.057514 -1.43973,0 -2.61471,-0.719756 -3.524721,-2.159486 -0.896435,-1.453306 -1.344655,-4.074814 -1.344655,-7.864285 0,-2.906613 0.197053,-5.113646 0.590941,-6.621284 0.393889,-1.507639 0.964344,-2.567064 1.711372,-3.178268 0.747027,-0.624787 1.602713,-0.937071 2.567063,-0.937071 z"
       inkscape:label="0" />
    <path
       id="path1-0"
       style="font-weight:bold;font-size:67.0277px;font-family:'Century Gothic';-inkscape-font-specification:'Century Gothic, Bold';text-align:center;letter-spacing:0px;word-spacing:-0.0396875px;text-anchor:middle;fill:#ffffff;stroke-width:0.435752;paint-order:markers stroke fill"
       d="M 48.621494,61.876813 47.403586,63.8539 h 7.776787 V 92.599532 H 53.470925 V 65.258067 h -6.932032 l -1.217907,1.977086 h 6.173176 V 92.60018 h 5.663944 V 61.876813 Z"
       inkscape:label="1" />
    <g
       id="g29"
       transform="matrix(0.78565244,0,0,0.78565244,-331.47373,-7.7690197)"
       style="stroke-width:0.792338">
      <path
         d="m 464.87176,14.322558 v 46.501626 c 0,7.008948 -2.06484,12.804806 -6.19461,17.387576 -4.12978,4.549074 -11.44575,6.642404 -17.78031,6.642404 H 427.77343 V 64.665542 c 1.37406,0 10.71002,0 11.58493,0 2.7998,0 4.19974,-2.173437 4.19974,-6.520332 V 14.322474 Z"
         style="font-size:8.81944px;font-family:'Bauhaus 93';-inkscape-font-specification:'Bauhaus 93, Normal';text-align:center;letter-spacing:0px;word-spacing:-0.0396875px;text-anchor:middle;fill:#f9f9f9;stroke-width:0.554635;paint-order:markers stroke fill"
         id="path1"
         sodipodi:nodetypes="cscsccsscc" />
      <path
         d="m 456.99191,14.322527 v 48.850646 c 0,6.520332 -8.9299,14.082104 -15.14212,14.08203 -6.42419,-7.6e-5 -7.62013,2e-6 -14.04433,0 v -4.806952 l 14.04433,-4e-6 c 2.7998,-10e-7 9.39597,-4.928179 9.39597,-9.275074 V 14.322474 Z"
         style="font-size:8.81944px;font-family:'Bauhaus 93';-inkscape-font-specification:'Bauhaus 93, Normal';text-align:center;letter-spacing:0px;word-spacing:-0.0396875px;text-anchor:middle;fill:#000000;stroke-width:0.554635;paint-order:markers stroke fill"
         id="path1-6"
         sodipodi:nodetypes="cssccsscc" />
      <path
         d="m 532.03521,14.322473 -18.34341,34.309912 18.96351,36.221776 h -22.06377 l -8.68083,-17.103295 -7.33732,17.103295 h -21.70212 l 19.37686,-35.65339 -18.3434,-34.878298 h 21.85704 l 8.21586,16.018176 6.61391,-16.018176 z"
         id="text26"
         style="font-size:8.81944px;font-family:'Bauhaus 93';-inkscape-font-specification:'Bauhaus 93, Normal';text-align:center;letter-spacing:0px;word-spacing:-0.0396875px;text-anchor:middle;display:inline;fill:#f9f9f9;stroke-width:0.554636;paint-order:markers stroke fill"
         aria-label="JX&#10;"
         sodipodi:nodetypes="ccccccccccccc" />
      <path
         id="rect28"
         style="display:inline;opacity:1;vector-effect:none;fill:#000000;stroke-width:0.554636;paint-order:markers stroke fill"
         d="m 481.96025,14.32264 18.43711,35.266064 -18.43711,35.265548 h 5.7459 l 15.56442,-29.770793 15.56391,29.770793 h 5.7459 L 506.14327,49.588704 524.58038,14.32264 h -5.7459 L 503.27057,44.093433 487.70615,14.32264 Z" />
    </g>
  </g>
</svg>
